<?xml version="1.0" encoding="utf-8"?>
<!-- License: CC0, Zookeeper Online https://zookeeper.ibinx.com/ -->
<svg xmlns="http://www.w3.org/2000/svg" width="128" height="128" viewBox="0 40 748 748">
<path fill="#333" d="M194 740h-10l-4-1c-3 0-10-7-12-11l-1-54v-50h-36c-47 0-53-1-70-9-10-4-16-9-26-18a93 93 0 0 1-26-42L7 371l1-184q2-13 8-23c10-22 31-40 52-48l3-1c11-3 22-3 269-3h325l8 2q26 6 45 28 19 18 22 42c2 7 2 27 2 183v18c0 151 0 163-4 174l-1 4q-7 16-20 31a96 96 0 0 1-45 27c-10 3-22 3-161 3-137 0-143 0-145 2zm15-102v40l3-2 10-7 90-60 42-28h181c113-1 123-1 132-4l5-3q17-9 26-31c1-5 2-8 2-172v-25c0-139 0-150-4-160l-3-4q-7-15-21-21l-9-4a34331 34331 0 0 0-580 1c-8 2-19 10-23 15l-5 10-2 3c-4 8-4 18-4 155v26c0 167 0 167 2 175 3 9 4 12 10 19q9 12 25 17c6 2 8 2 59 3l52 1 5 4 6 9zm-45-191c-13 8-29 3-33-11-1-5-1-11 4-34l3-10-5-5-16-15-11-12-1-9c0-6 0-7 3-11 6-8 8-8 32-10l18-2 7-18c6-16 7-17 13-23 7-7 8-7 17-5 9 3 13 8 24 36l5 11h5l32 3q9 2 15 11v17l-16 16q-13 12-15 17-1 2 1 6c3 8 6 24 6 32 0 7-1 8-4 12q-6 8-16 8c-7 0-8-1-26-12l-15-9-11 7zm177 3q-8 2-15-1-8-4-11-13c-1-5-1-9 3-26l3-16c0-2-2-5-14-17l-17-17-1-9c0-6 0-7 3-11 6-7 8-8 26-10l21-3q3 0 5-4c12-30 13-32 19-37q6-6 9-5c15 3 19 6 29 31 5 13 6 15 8 16l18 2c21 2 23 2 28 8q8 7 5 18c0 4-2 6-10 14l-22 22 4 19c5 20 5 26 0 32s-7 7-14 8c-7 0-10-1-28-12l-12-8c-3-1-3-1-18 8-8 6-17 10-19 11m184 0q-12 4-20-6l-5-5v-9q-1-9 3-24l3-15-7-6q-23-21-25-26l-1-9q0-7 3-10c6-8 8-8 32-10l18-1 4-12 8-18q10-22 29-15c6 3 10 9 17 28l7 17h12q27 2 33 5l6 6c3 4 3 5 3 12v7l-17 17-16 16 1 4q7 24 6 34c0 8 0 9-3 13q-6 8-16 8c-6 0-10-2-24-10l-12-8-5-3-15 9q-13 9-19 11"/>
</svg>