<svg xmlns="http://www.w3.org/2000/svg" width="325" height="325" viewBox="0 -20 325 325">
<g>
<path d="M 66.82 227.59 C62.81,229.62 60.61,230.00 52.78,230.00 C41.66,230.00 37.07,228.16 31.00,221.26 C26.37,216.01 25.01,211.91 25.01,203.22 C25.00,195.24 26.89,190.73 32.80,184.67 C39.48,177.80 43.46,176.00 51.93,176.00 L 58.94 176.00 L 59.50 90.03 L 63.50 86.15 C66.37,83.36 70.18,81.26 77.00,78.71 C82.22,76.76 96.40,71.50 108.50,67.02 C120.60,62.54 132.61,58.00 135.19,56.93 C138.08,55.74 142.22,55.00 146.04,55.00 C151.71,55.00 152.47,55.27 155.60,58.40 L 159.00 61.80 L 159.00 119.22 C159.00,120.77 159.00,122.28 159.00,123.76 C159.00,172.76 159.00,181.63 154.89,187.72 C153.86,189.25 152.56,190.60 150.94,192.37 C143.74,200.26 137.69,203.00 127.55,202.99 C117.00,202.99 113.22,201.83 107.59,196.87 C101.42,191.44 98.82,186.13 98.22,177.75 C97.58,168.96 99.75,163.20 106.28,156.30 C112.24,150.00 117.40,147.83 126.92,147.64 L 133.99 147.50 L 134.00 125.25 C134.00,113.01 133.61,103.00 133.12,103.00 C132.64,103.00 131.68,103.68 131.00,104.50 C130.32,105.32 128.60,106.00 127.19,106.00 C125.78,106.00 117.28,108.93 108.31,112.50 C99.34,116.07 91.66,119.01 91.25,119.03 C90.84,119.05 89.30,120.12 87.84,121.40 L 85.19 123.74 L 84.83 165.12 C84.48,204.89 84.38,206.68 82.32,211.18 C79.45,217.43 72.65,224.63 66.82,227.59 ZM 253.22 89.01 C229.72,89.01 208.25,89.17 205.50,89.35 C202.75,89.54 196.23,89.52 191.00,89.30 C181.62,88.92 181.45,88.87 177.75,85.26 C174.30,81.89 174.00,81.15 174.00,75.99 C174.00,70.97 174.34,70.06 177.30,67.20 L 180.60 64.00 L 296.29 64.00 L 300.65 67.57 C304.22,70.49 305.00,71.74 305.00,74.51 C305.00,76.36 304.55,78.16 304.00,78.50 C303.45,78.84 303.00,79.94 303.00,80.96 C303.00,81.97 301.41,84.19 299.47,85.90 L 295.93 89.00 ZM 300.17 132.71 L 295.84 136.00 L 180.80 136.00 L 177.40 132.60 C174.37,129.57 174.00,128.61 174.00,123.80 C174.00,118.87 174.33,118.09 177.79,114.70 L 181.58 111.00 L 295.04 111.00 L 298.78 113.36 C304.43,116.92 305.15,118.21 304.81,124.12 C304.52,129.04 304.20,129.64 300.17,132.71 ZM 298.38 181.91 C295.76,183.97 295.02,184.00 238.40,184.00 L 181.07 184.00 L 177.53 180.90 C174.23,177.99 174.00,177.41 174.00,171.80 C174.00,166.31 174.29,165.51 177.40,162.40 L 180.80 159.00 L 237.94 159.00 C289.76,159.00 295.32,159.16 297.79,160.68 C302.81,163.81 305.00,166.32 305.00,168.99 C305.00,172.68 301.54,179.43 298.38,181.91 Z" fill="rgb(42,44,41)"/>
</g>
</svg>