<?xml version="1.0" encoding="utf-8"?>
<!-- License: CC0, Zookeeper Online https://zookeeper.ibinx.com/ -->
<svg xmlns="http://www.w3.org/2000/svg" width="325" height="325" viewBox="0 -20 325 325">
<path fill="#333" d="M65 229c-6 3-17 4-23 2q-18-9-18-30 1-11 8-17 6-8 19-8h8v-42l1-44q3-5 19-11l33-13c33-13 35-13 39-12l6 5c2 3 2 5 2 62v59l-4 7q-6 12-14 16l-13 1c-11 0-14-1-21-7q-8-8-9-19 0-12 8-22 8-8 21-8l7-1v-22l-1-23-47 20-1 43v41l-3 6q-6 11-17 17M299 87c-3 2-11 2-51 2-56 1-67 0-71-2q-5-4-5-11 0-6 6-10c2-2 6-2 61-2s58 0 60 2q7 4 6 10 0 8-6 11m0 95c-3 2-11 2-61 2-53 0-57 0-59-2q-7-4-6-11 0-7 6-10c2-2 6-2 59-2 50 0 58 0 61 2q6 3 6 11c0 8-2 8-6 10m2-48c-2 1-7 2-61 2-56 0-59 0-61-2q-6-4-6-10 0-8 6-11c3-2 4-2 61-2 54 0 59 1 61 2 7 5 7 16 0 21"/>
</svg>