<?xml version="1.0" encoding="utf-8"?>
<!-- License: CC0, Zookeeper Online https://zookeeper.ibinx.com/ -->
<svg xmlns="http://www.w3.org/2000/svg" width="741" height="860" viewBox="0 0 741 860">
<g>
<path d="M 682.24 626.23 L 673.50 629.50 L 370.50 629.69 C83.19,629.88 67.16,629.80 61.00,628.12 C46.58,624.18 37.01,618.03 23.92,604.27 C14.84,594.73 9.91,586.61 5.85,574.50 L 3.50 567.50 L 3.23 396.16 C2.97,227.68 3.00,224.68 4.97,216.38 C8.69,200.71 14.26,191.42 27.97,178.00 C38.86,167.33 46.77,162.22 58.50,158.23 L 66.50 155.52 L 200.50 154.91 L 204.00 151.51 C206.58,149.00 215.55,144.56 238.00,134.67 C278.28,116.93 293.86,110.00 303.32,105.62 C307.63,103.63 311.31,102.00 311.51,102.00 C311.72,102.00 315.85,100.16 320.69,97.91 C325.54,95.65 346.02,86.44 366.22,77.44 C386.41,68.43 406.21,59.54 410.22,57.68 C414.22,55.82 424.60,51.19 433.27,47.40 C448.75,40.63 449.06,40.43 450.06,36.77 C451.68,30.77 460.96,20.68 468.15,17.08 C473.84,14.24 475.12,14.00 484.62,14.00 C498.29,14.00 503.98,16.07 512.07,23.99 C520.51,32.24 522.98,38.04 522.99,49.57 C523.01,63.56 521.28,68.07 512.65,76.59 C503.23,85.89 499.07,87.39 484.17,86.79 C476.52,86.48 472.46,85.84 469.82,84.53 L 466.14 82.70 L 447.82 90.81 C437.74,95.28 421.62,102.48 412.00,106.83 C380.69,120.96 314.62,150.95 309.73,153.26 L 304.96 155.50 L 488.73 155.50 C656.51,155.50 672.94,155.64 677.50,157.14 C693.35,162.35 701.04,166.93 712.36,177.89 C725.80,190.91 733.11,203.22 736.16,218.00 C738.07,227.29 738.15,558.75 736.24,566.86 C732.60,582.31 725.31,594.60 712.39,607.09 C702.39,616.75 694.98,621.45 682.24,626.23 ZM 80.48 583.54 C86.06,584.56 145.68,584.84 370.09,584.91 C646.57,585.00 652.84,584.96 660.26,583.06 C669.65,580.66 674.96,578.00 680.44,572.94 C685.48,568.30 690.65,557.77 692.03,549.34 C693.28,541.74 693.29,244.79 692.05,236.19 C690.91,228.32 686.35,218.42 681.75,213.81 C677.67,209.74 671.22,205.95 664.43,203.63 C660.05,202.14 635.19,202.00 369.57,202.03 C91.91,202.06 79.27,202.14 74.24,203.88 C63.07,207.74 55.63,215.07 50.73,227.05 L 48.50 232.50 L 48.50 554.50 L 52.13 562.09 C58.14,574.68 66.49,581.00 80.48,583.54 ZM 355.78 300.45 C352.49,301.82 337.25,302.00 221.78,301.98 C97.00,301.96 91.33,301.88 87.50,300.10 C78.98,296.15 73.98,288.07 74.02,278.28 C74.05,271.39 76.39,265.80 81.13,261.30 C82.06,260.42 82.70,259.66 83.43,259.00 C87.95,254.97 96.06,254.98 198.06,255.00 C205.82,255.00 214.13,255.00 223.02,255.00 C233.40,255.00 242.99,255.00 251.83,254.99 C348.62,254.97 356.73,254.96 360.83,259.02 C361.58,259.76 362.20,260.63 363.20,261.67 C368.04,266.68 370.01,271.62 369.98,278.72 C369.94,288.40 364.42,296.84 355.78,300.45 ZM 328.34 380.92 C325.77,381.63 286.01,382.06 208.00,382.24 C96.29,382.49 91.35,382.42 87.75,380.65 C80.40,377.01 76.00,369.54 76.00,360.68 C76.00,353.74 77.47,349.52 81.72,344.23 C82.72,343.00 83.29,341.97 84.05,341.12 C87.82,336.93 96.28,336.95 182.90,337.17 C191.14,337.19 200.08,337.22 209.80,337.24 L 328.65 337.50 L 332.81 340.26 C339.13,344.44 342.34,349.98 342.82,357.52 C343.04,360.99 342.67,365.48 341.98,367.56 C340.32,372.58 333.17,379.59 328.34,380.92 ZM 403.69 475.05 C396.91,479.18 387.29,476.33 384.36,469.32 C383.05,466.18 383.00,463.73 383.98,451.59 C387.03,414.13 398.49,379.83 417.35,351.73 C448.75,304.93 493.76,273.17 544.00,262.36 C559.70,258.98 587.89,257.86 592.83,260.41 C600.63,264.45 602.33,275.13 596.16,281.31 C593.05,284.41 592.97,284.43 579.27,285.12 C564.05,285.89 555.50,287.09 543.50,290.13 C505.58,299.76 471.52,323.37 446.01,357.73 C424.08,387.26 412.78,418.27 410.14,456.09 C409.18,469.88 408.40,472.18 403.69,475.05 ZM 458.46 475.02 C456.45,476.27 453.50,477.00 450.51,477.00 C446.30,477.00 445.31,476.55 441.74,472.97 L 437.71 468.95 L 438.27 459.22 C440.36,422.51 456.89,386.19 483.93,358.88 C509.88,332.68 539.69,319.62 576.50,318.34 C589.34,317.89 590.77,318.02 593.70,319.88 C601.08,324.56 602.10,334.77 595.78,340.56 C592.51,343.56 591.89,343.72 580.96,344.41 C556.41,345.97 536.00,352.48 518.50,364.34 C515.20,366.58 508.29,372.47 503.15,377.44 C481.54,398.35 468.34,426.32 465.03,458.25 C463.85,469.56 462.75,472.37 458.46,475.02 ZM 598.20 512.87 C578.75,517.03 559.24,507.53 550.53,489.66 C541.88,471.92 544.87,452.40 558.33,438.64 C579.61,416.89 615.70,423.26 629.42,451.19 C641.88,476.53 626.56,506.80 598.20,512.87 ZM 515.49 473.75 C512.56,476.50 511.29,476.99 507.26,476.96 C494.54,476.85 491.03,467.47 496.57,448.37 C508.92,405.72 541.42,377.20 580.78,374.46 C590.98,373.75 595.09,375.31 598.17,381.06 C603.29,390.60 596.96,400.96 586.00,401.01 C578.30,401.05 567.84,403.79 559.22,408.05 C540.17,417.43 526.12,436.98 520.91,461.35 C519.22,469.26 518.48,470.94 515.49,473.75 Z" fill="rgb(51,51,51)"/>
</g>
</svg>