<?xml version="1.0" encoding="utf-8"?>
<!-- License: CC0, Zookeeper Online https://zookeeper.ibinx.com/ -->
<svg xmlns="http://www.w3.org/2000/svg" width="325" height="325" viewBox="0 -20 325 325">
<g>
<path d="M 65.00 228.64 C58.74,231.87 47.85,232.88 42.39,230.72 C30.59,226.08 23.29,214.02 24.19,200.66 C24.69,193.38 26.83,188.50 31.67,183.67 C37.01,178.33 41.37,176.61 50.75,176.18 L 59.00 175.79 L 59.01 134.15 C59.03,102.82 59.34,91.89 60.28,90.03 C62.09,86.45 68.17,82.77 79.00,78.70 C84.22,76.74 99.07,71.01 112.00,65.97 C144.63,53.25 147.00,52.56 151.43,54.41 C153.37,55.22 155.87,57.37 156.99,59.19 C158.99,62.43 159.02,63.67 158.76,121.50 L 158.50 180.50 L 155.18 187.15 C151.48,194.58 146.61,199.96 141.15,202.68 C138.39,204.06 135.17,204.50 128.00,204.50 C116.98,204.50 113.52,203.21 107.00,196.67 C101.16,190.82 98.79,185.72 98.22,177.75 C97.58,168.96 99.75,163.20 106.28,156.30 C112.24,150.00 117.40,147.83 126.92,147.64 L 133.99 147.50 L 134.00 124.75 C134.00,111.07 133.62,102.00 133.05,102.00 C132.53,102.00 121.73,106.09 109.05,111.09 C90.04,118.58 85.91,120.56 85.52,122.34 C85.27,123.53 84.93,142.95 84.78,165.50 L 84.50 206.50 L 81.80 212.00 C78.48,218.74 72.29,224.88 65.00,228.64 ZM 298.69 87.34 C296.01,88.62 287.89,88.91 248.00,89.18 C191.61,89.56 180.54,89.18 176.92,86.73 C173.40,84.36 171.52,80.53 171.64,75.99 C171.75,71.69 173.63,68.54 177.69,65.86 C180.34,64.12 183.75,64.01 238.50,64.01 C293.25,64.01 296.66,64.12 299.31,65.86 C303.50,68.63 305.33,71.84 305.33,76.44 C305.33,81.44 302.97,85.31 298.69,87.34 ZM 298.54 182.41 C295.61,183.80 288.19,184.00 238.35,183.99 C184.73,183.99 181.34,183.88 178.69,182.14 C174.49,179.36 172.67,176.15 172.67,171.50 C172.67,166.85 174.49,163.64 178.69,160.86 C181.34,159.12 184.73,159.01 238.35,159.01 C288.19,159.00 295.61,159.20 298.54,160.59 C302.95,162.68 305.33,166.51 305.33,171.50 C305.33,176.49 302.95,180.32 298.54,182.41 ZM 301.08 133.74 C298.70,135.36 293.89,135.52 240.00,135.76 C184.31,136.01 181.37,135.93 178.69,134.16 C174.63,131.45 172.75,128.30 172.64,124.01 C172.51,119.18 174.52,115.46 178.61,112.93 C181.75,110.99 183.36,110.95 240.17,111.22 C293.88,111.48 298.70,111.64 301.08,113.26 C308.19,118.08 308.19,128.92 301.08,133.74 Z" fill="rgb(51,51,51)"/>
</g>
</svg>