<?xml version="1.0" encoding="utf-8"?>
<!-- License: CC0, Zookeeper Online https://zookeeper.ibinx.com/ -->
<svg xmlns="http://www.w3.org/2000/svg" width="128" height="128" viewBox="0 10 325 325">
<path fill="#333" d="M50 272c-8 3-21 4-27 1-14-7-22-29-15-42q6-11 16-16l12-2h8v-47l1-47 4-4a11876 11876 0 0 0 93-37q6-2 9 1l1 4 1 3c1 1 2 28 2 66v65l-4 7c-7 13-10 15-18 18-10 3-24 3-30-1q-8-4-13-14-2-6-2-13 1-27 29-32l8-1q3-2 2-17v-7l-1-25-51 22-2 47v46l-3 6q-8 12-20 19m249-155H189c-13-1-15-2-18-6-4-6-2-15 4-19a1905 1905 0 0 1 130-2l7 4q4 3 4 8 1 14-17 15m12 50a2536 2536 0 0 1-131 2l-6-5q-4-4-4-8 0-9 8-13h127q11 1 12 11 0 9-6 13m-1 53c-3 1-9 2-65 2l-66-1q-8-3-9-11 0-6 2-9l6-5 65-1c59 0 62 0 66 2q7 3 7 13 0 6-6 10"/>
</svg>