<svg xmlns="http://www.w3.org/2000/svg" width="741" height="860" viewBox="0 0 741 860">
<g>
<path d="M 680.24 623.23 L 671.50 626.50 L 370.50 626.69 C83.88,626.88 69.19,626.80 63.00,625.10 C49.07,621.26 39.15,615.03 27.33,602.72 C18.44,593.47 13.07,584.75 9.12,573.17 L 6.50 565.50 L 6.50 394.00 C6.50,231.92 6.60,222.17 8.30,216.50 C12.89,201.16 18.07,192.66 30.08,180.83 C40.16,170.89 49.58,164.89 60.72,161.29 L 68.50 158.78 L 135.20 158.64 L 201.90 158.50 L 205.70 154.80 C208.69,151.89 216.72,147.93 243.50,136.15 C262.20,127.93 289.20,115.94 303.50,109.52 C317.80,103.09 342.10,92.19 357.50,85.30 C372.90,78.40 393.83,69.04 404.00,64.48 C414.17,59.92 429.02,53.28 437.00,49.72 L 451.50 43.25 L 453.28 38.50 C455.93,31.41 463.11,23.60 470.26,20.03 C475.55,17.39 477.38,17.00 484.62,17.00 C496.33,17.00 501.85,19.26 509.66,27.23 C513.03,30.68 516.59,35.08 517.56,37.00 C520.12,42.04 520.65,54.26 518.61,61.26 C516.61,68.16 509.55,76.27 501.84,80.54 C496.87,83.29 495.76,83.50 486.00,83.50 C476.64,83.50 475.01,83.23 471.00,80.98 L 466.50 78.46 L 440.00 90.29 C425.42,96.80 406.75,105.21 398.50,108.99 C390.25,112.76 380.35,117.29 376.50,119.04 C372.65,120.80 366.12,123.80 362.00,125.71 C352.89,129.93 310.96,148.75 298.50,154.22 C293.55,156.39 289.29,158.38 289.04,158.63 L 289.04 158.63 C289.04,158.88 374.67,159.03 479.54,158.97 L 670.50 158.87 L 677.50 161.04 C692.11,165.58 701.48,171.51 712.68,183.30 C721.42,192.51 724.94,197.59 728.78,206.63 C729.51,208.36 730.16,209.73 730.72,211.14 C734.51,220.66 734.51,231.70 734.50,367.60 C734.50,375.62 734.50,384.08 734.50,393.00 C734.50,407.86 734.50,421.44 734.51,433.86 C734.55,553.82 734.55,565.85 729.98,575.78 C729.00,577.92 727.80,579.95 726.35,582.95 C722.37,591.14 720.42,593.74 711.63,602.55 C700.48,613.73 693.75,618.16 680.24,623.23 ZM 78.47 586.54 C87.91,588.26 650.32,588.61 659.54,586.91 C666.76,585.57 676.14,581.37 681.50,577.07 C685.84,573.59 691.29,565.16 693.85,558.00 C695.29,553.96 695.49,537.65 695.76,397.00 C695.96,291.29 695.72,238.29 695.01,233.68 C693.90,226.49 689.88,217.38 685.50,212.19 C682.23,208.29 673.22,202.84 666.00,200.38 C660.67,198.56 651.47,198.50 370.00,198.50 C98.31,198.50 79.14,198.61 74.00,200.22 C61.19,204.21 51.83,213.35 47.33,226.24 C45.58,231.26 45.50,238.96 45.50,394.08 L 45.50 556.65 L 49.78 565.28 C55.97,577.77 64.34,583.97 78.47,586.54 ZM 352.38 298.04 C350.83,298.63 300.92,299.00 222.18,299.00 C99.02,298.99 94.39,298.93 91.50,297.12 C89.85,296.08 86.71,293.38 84.53,291.10 C80.81,287.22 80.54,286.54 80.17,279.97 C79.93,275.80 80.27,271.77 81.00,270.01 C82.50,266.39 90.04,259.27 93.19,258.51 C94.46,258.20 153.55,258.07 224.50,258.22 L 353.50 258.50 L 356.87 260.90 C362.40,264.85 366.00,271.48 366.00,277.73 C366.00,280.66 365.39,284.51 364.65,286.28 C363.13,289.93 356.16,296.61 352.38,298.04 ZM 214.25 379.01 C154.44,379.01 103.25,379.20 100.50,379.43 C93.69,379.98 91.88,379.44 87.25,375.48 C82.05,371.03 80.00,366.53 80.00,359.55 C80.00,352.70 81.45,349.68 87.40,344.20 L 91.96 340.00 L 322.04 340.00 L 326.60 344.20 C332.62,349.75 334.00,352.69 334.00,360.00 C334.00,367.19 332.57,370.35 327.06,375.33 L 322.99 379.00 ZM 403.69 475.05 C396.91,479.18 387.29,476.33 384.36,469.32 C383.05,466.18 383.00,463.73 383.98,451.59 C387.03,414.13 398.49,379.83 417.35,351.73 C448.75,304.93 493.76,273.17 544.00,262.36 C559.70,258.98 587.89,257.86 592.83,260.41 C600.63,264.45 602.33,275.13 596.16,281.31 C593.05,284.41 592.97,284.43 579.27,285.12 C564.05,285.89 555.50,287.09 543.50,290.13 C505.58,299.76 471.52,323.37 446.01,357.73 C424.08,387.26 412.78,418.27 410.14,456.09 C409.18,469.88 408.40,472.18 403.69,475.05 ZM 458.46 475.02 C456.45,476.27 453.50,477.00 450.51,477.00 C446.30,477.00 445.31,476.55 441.74,472.97 L 437.71 468.95 L 438.27 459.22 C440.36,422.51 456.89,386.19 483.93,358.88 C509.88,332.68 539.69,319.62 576.50,318.34 C589.34,317.89 590.77,318.02 593.70,319.88 C601.08,324.56 602.10,334.77 595.78,340.56 C592.51,343.56 591.89,343.72 580.96,344.41 C556.41,345.97 536.00,352.48 518.50,364.34 C515.20,366.58 508.29,372.47 503.15,377.44 C481.54,398.35 468.34,426.32 465.03,458.25 C463.85,469.56 462.75,472.37 458.46,475.02 ZM 598.20 512.87 C578.75,517.03 559.24,507.53 550.53,489.66 C541.88,471.92 544.87,452.40 558.33,438.64 C579.61,416.89 615.70,423.26 629.42,451.19 C641.88,476.53 626.56,506.80 598.20,512.87 ZM 515.49 473.75 C512.56,476.50 511.29,476.99 507.26,476.96 C494.54,476.85 491.03,467.47 496.57,448.37 C508.92,405.72 541.42,377.20 580.78,374.46 C590.98,373.75 595.09,375.31 598.17,381.06 C603.29,390.60 596.96,400.96 586.00,401.01 C578.30,401.05 567.84,403.79 559.22,408.05 C540.17,417.43 526.12,436.98 520.91,461.35 C519.22,469.26 518.48,470.94 515.49,473.75 Z" fill="rgb(41,43,41)"/>
</g>
</svg>