<?xml version="1.0" encoding="utf-8"?>
<!-- License: CC0, Zookeeper Online https://zookeeper.ibinx.com/ -->
<svg xmlns="http://www.w3.org/2000/svg" width="748" height="749" viewBox="0 40 748 749">
<g>
<path d="M 193.94 740.02 C190.45,741.02 188.07,741.10 184.50,740.35 C183.40,740.11 181.48,739.70 180.22,739.44 C176.94,738.73 170.13,732.24 168.44,728.21 C167.25,725.35 167.00,716.02 167.00,674.38 L 167.00 624.00 L 130.75 623.98 C84.23,623.96 78.29,623.20 60.50,615.02 C51.30,610.79 45.29,606.41 35.16,596.59 C22.33,584.14 14.41,571.23 9.36,554.50 C7.64,548.82 7.53,539.00 7.24,371.00 C7.02,250.03 7.26,191.54 7.98,187.33 C9.33,179.42 12.26,170.26 15.55,163.69 C26.25,142.33 47.12,123.71 68.47,116.46 C69.58,116.08 70.52,115.74 71.46,115.42 C81.56,112.03 92.80,112.03 340.08,112.02 C351.41,112.02 363.22,112.02 375.56,112.02 L 664.62 112.00 L 673.06 114.11 C690.63,118.51 703.90,126.68 718.10,141.84 C730.50,155.09 736.91,167.28 740.42,184.27 C741.83,191.07 742.00,211.24 741.97,366.71 C741.96,372.85 741.96,378.79 741.96,384.53 C741.94,536.35 741.93,548.47 738.16,559.26 C737.69,560.61 737.16,561.93 736.56,563.50 C732.49,574.26 726.36,583.55 716.59,593.76 C703.78,607.17 690.71,615.10 672.00,620.83 C662.47,623.75 649.81,624.00 510.56,624.00 C374.09,624.00 368.17,624.08 365.88,625.83 C362.95,628.09 280.55,683.54 274.99,687.00 C272.78,688.38 254.41,700.65 234.17,714.27 C213.92,727.89 195.82,739.48 193.94,740.02 ZM 208.99 638.27 L 209.00 678.05 L 211.75 676.30 C213.26,675.34 217.88,672.25 222.00,669.44 C240.14,657.09 272.56,635.28 311.59,609.19 L 353.67 581.04 L 504.09 580.75 C515.27,580.72 525.65,580.70 535.28,580.69 C648.13,580.49 658.26,580.47 666.58,576.58 C668.11,575.87 669.58,575.02 671.62,574.02 C683.29,568.27 692.33,557.45 697.50,543.07 C699.47,537.60 699.50,534.61 699.78,371.00 C699.79,362.08 699.81,353.61 699.82,345.57 C700.06,207.30 700.08,195.71 695.64,186.21 C694.97,184.78 694.21,183.41 693.33,181.66 C688.69,172.45 681.22,165.18 671.79,160.70 C667.78,158.79 663.67,156.96 662.65,156.61 C661.64,156.27 532.01,155.99 374.59,155.98 C100.53,155.98 88.14,156.06 82.86,157.80 C75.31,160.29 64.08,167.96 60.35,173.18 C58.65,175.56 56.08,179.85 54.62,182.73 C53.94,184.08 53.35,185.14 52.82,186.23 C48.99,194.21 48.99,204.04 49.00,340.96 C49.00,349.14 49.00,357.78 49.00,366.90 C49.00,534.32 49.00,534.37 51.11,541.94 C53.68,551.14 55.04,553.87 60.65,561.18 C65.69,567.75 75.94,574.59 86.00,578.11 C92.34,580.32 93.75,580.39 144.71,580.94 L 196.93 581.50 L 201.98 586.48 C204.93,589.38 207.44,592.92 208.01,594.98 C208.57,597.00 208.99,615.43 208.99,638.27 ZM 164.29 446.96 C150.98,455.15 134.72,449.69 130.92,435.76 C129.66,431.15 130.49,425.13 135.49,402.50 L 137.93 391.50 L 132.71 386.56 C129.85,383.84 122.90,377.27 117.28,371.95 C111.66,366.64 106.60,361.07 106.03,359.58 C105.46,358.09 105.00,354.04 105.00,350.58 C105.00,345.20 105.43,343.71 107.98,340.19 C113.61,332.41 116.07,331.62 140.00,329.89 C149.07,329.23 156.97,328.34 157.54,327.90 C158.10,327.47 161.48,319.55 165.04,310.31 C171.32,293.99 171.68,293.34 177.85,287.26 C184.79,280.41 186.19,279.99 194.58,282.23 C204.49,284.88 208.10,290.12 219.04,317.74 L 223.50 328.99 L 228.50 329.00 C233.65,329.01 253.15,330.56 260.86,331.58 C265.60,332.21 272.87,337.92 275.58,343.15 C277.42,346.72 277.40,356.32 275.54,359.92 C274.74,361.47 267.65,368.91 259.79,376.45 C251.93,383.99 245.20,391.25 244.83,392.59 C244.47,393.92 244.78,396.70 245.52,398.76 C248.59,407.24 251.50,422.78 251.50,430.66 C251.50,438.25 251.29,439.08 248.44,442.66 C244.42,447.71 237.88,451.00 231.85,451.00 C225.47,451.00 224.36,450.49 206.48,439.47 L 190.92 429.88 L 180.42 436.69 C174.65,440.44 167.39,445.06 164.29,446.96 ZM 341.25 449.95 C335.89,451.44 330.01,451.21 326.26,449.36 C321.54,447.03 316.28,440.75 314.97,435.88 C313.62,430.89 314.10,426.94 318.14,409.56 C319.79,402.45 321.18,395.38 321.22,393.86 C321.29,391.56 318.80,388.68 306.60,376.89 C298.51,369.08 291.24,361.43 290.45,359.90 C289.62,358.30 289.00,354.32 289.00,350.63 C289.00,344.86 289.36,343.69 292.26,339.88 C297.56,332.93 299.82,332.10 318.14,330.43 C327.12,329.60 334.90,328.50 335.43,327.97 C335.97,327.43 337.68,327.00 339.25,327.00 C341.61,327.00 342.37,326.35 343.63,323.25 C356.08,292.78 357.00,291.01 363.34,285.59 C368.19,281.45 369.43,280.85 372.24,281.30 C387.32,283.69 390.64,287.23 400.51,311.50 C405.96,324.90 407.08,327.08 409.00,328.08 C409.83,328.51 417.92,329.39 427.00,330.04 C448.41,331.57 449.73,331.93 455.28,337.87 C460.34,343.27 461.79,348.36 460.49,356.08 C459.86,359.76 458.43,361.63 449.63,370.26 C444.06,375.73 436.91,382.48 433.75,385.25 C430.59,388.03 428.00,391.10 428.00,392.08 C428.00,393.06 429.85,401.39 432.11,410.58 C437.09,430.84 437.14,436.79 432.38,442.67 C427.40,448.82 424.62,450.37 417.74,450.79 C410.61,451.24 407.86,450.05 390.42,439.00 C384.96,435.54 379.33,432.02 377.90,431.18 C375.37,429.67 374.95,429.86 360.15,439.27 C351.82,444.57 343.31,449.38 341.25,449.95 ZM 525.47 449.89 C517.01,452.24 511.13,450.60 504.61,444.09 L 499.50 438.98 L 499.50 429.74 C499.50,422.77 500.34,416.90 502.90,405.86 L 506.30 391.21 L 499.40 384.87 C483.89,370.61 475.09,361.63 473.96,358.91 C473.28,357.26 472.94,353.28 473.17,349.63 C473.49,344.57 474.16,342.48 476.36,339.60 C481.89,332.35 484.31,331.62 508.49,329.89 L 525.53 328.67 L 530.33 317.08 C532.97,310.71 536.26,302.73 537.64,299.35 C543.69,284.48 554.81,278.55 566.58,283.90 C573.16,286.89 576.99,292.82 584.46,311.61 L 591.26 328.71 L 603.38 329.38 C621.21,330.37 632.46,331.99 635.91,334.09 C637.57,335.10 640.30,337.82 641.97,340.12 C644.70,343.89 645.00,345.05 645.03,351.90 L 645.06 359.50 L 628.46 375.64 L 611.86 391.79 L 612.91 395.64 C617.59,412.73 619.39,422.25 619.44,430.15 C619.50,438.36 619.34,439.00 616.43,442.60 C611.97,448.12 606.56,450.90 600.21,450.96 C594.46,451.00 589.77,448.94 576.50,440.53 C572.65,438.09 567.13,434.69 564.23,432.96 L 558.95 429.83 L 544.20 439.30 C536.09,444.52 527.66,449.28 525.47,449.89 Z" fill="rgb(51,51,51)"/>
</g>
</svg>