<?xml version="1.0" encoding="utf-8"?>
<!-- License: CC0, Zookeeper Online https://zookeeper.ibinx.com/ -->
<svg xmlns="http://www.w3.org/2000/svg" width="128" height="128" viewBox="0 0 633 633">
<path fill="#333" d="m612 485-4 4H315l-296-1q-6-3-10-9l-1-11v-8l5-5 5-6h31v-30c0-32 0-33 6-39l4-3h43c42 0 44 0 47 2l5 5c2 3 2 5 2 34v31h31V316l9-10h89l4 3 2 2c4 3 4 11 4 63v75h29V318c0-83 0-91 4-95l3-2 3-3h41l45 1 8 5 4 4v221h31V138l4-4 5-4h91l9 9v310h17c17 0 18 0 24 5q7 6 6 15 1 9-7 16M65 331q-22 5-31 2c-2-1-10-9-11-12v-9q1-8 4-11c4-5 7-7 18-8a521 521 0 0 0 315-193l-7-5q-14-7-17-15V70q0-6 4-11l6-4 57-10 22-2h8l4 5 5 5v79l-4 4q-6 7-14 7-8 1-19-11l-8-7-4 4q-45 53-97 94l-32 23a524 524 0 0 1-199 85"/>
</svg>