<?xml version="1.0" encoding="utf-8"?>
<!-- License: CC0, Zookeeper Online https://zookeeper.ibinx.com/ -->
<svg xmlns="http://www.w3.org/2000/svg" width="633" height="633" viewBox="0 0 633 633">
<g>
<path d="M 612.03 484.50 L 607.90 488.50 L 314.70 488.69 C121.79,488.81 20.64,488.54 19.00,487.88 C15.80,486.61 11.22,482.27 9.41,478.80 C8.54,477.13 8.00,473.05 8.00,468.12 L 8.00 460.14 L 12.89 454.82 L 17.78 449.50 L 33.39 449.18 L 49.00 448.86 L 49.00 419.40 C49.00,386.66 49.16,385.70 55.39,380.23 L 59.07 377.00 L 102.28 377.00 C143.64,377.01 145.64,377.09 148.76,378.99 C150.55,380.09 152.91,382.45 154.01,384.24 C155.87,387.31 155.99,389.33 156.00,418.25 L 156.00 449.00 L 187.00 449.00 L 187.00 315.91 L 196.27 306.00 L 285.31 306.00 L 288.66 308.55 C289.77,309.40 290.69,310.01 291.45,310.78 C295.01,314.39 295.01,321.52 295.00,373.93 C295.00,376.80 295.00,379.80 295.00,382.95 L 295.00 449.00 L 324.00 449.00 L 324.00 339.45 C324.00,331.62 324.00,324.32 324.00,317.53 C323.97,234.80 323.97,226.77 327.95,223.28 C328.70,222.62 329.60,222.12 330.67,221.30 L 334.34 218.50 L 375.09 218.19 C401.13,217.99 417.23,218.25 419.69,218.92 C421.96,219.53 425.19,221.63 427.53,224.03 L 431.50 228.10 L 431.77 338.55 L 432.04 449.00 L 463.00 449.00 L 463.00 138.25 L 467.48 134.13 L 471.96 130.00 L 563.26 130.00 L 572.00 138.74 L 572.00 449.00 L 588.57 449.00 C606.29,449.00 607.37,449.24 612.84,454.37 C617.64,458.88 619.00,462.10 619.00,469.00 C619.00,476.11 617.69,479.02 612.03,484.50 ZM 65.32 330.90 C51.26,333.98 38.88,334.84 34.49,333.06 C31.53,331.86 24.17,323.53 23.42,320.53 C23.06,319.11 22.95,315.05 23.18,311.51 C23.52,306.17 24.11,304.43 26.65,301.29 C31.01,295.90 34.23,294.37 45.00,292.57 C91.89,284.73 149.41,264.18 195.17,238.91 C257.13,204.69 307.35,164.21 346.85,116.67 C354.08,107.96 360.00,100.43 360.00,99.93 C360.00,99.43 356.74,97.40 352.75,95.41 C343.76,90.93 337.32,84.90 335.90,79.61 C335.29,77.35 335.13,73.16 335.54,69.70 C336.13,64.58 336.81,63.08 340.21,59.39 C342.39,57.02 344.93,54.84 345.84,54.55 C346.75,54.27 356.73,52.66 368.00,50.98 C379.27,49.31 395.09,46.82 403.14,45.47 C411.19,44.11 421.14,43.00 425.25,43.00 L 432.73 43.00 L 437.36 47.96 L 442.00 52.91 L 442.00 131.99 L 438.25 136.15 C433.89,140.98 429.69,143.00 424.00,143.00 C417.58,143.00 413.08,140.49 404.66,132.21 L 396.83 124.50 L 392.66 129.45 C363.54,164.04 330.42,195.97 296.00,222.63 C282.49,233.09 284.60,231.58 263.89,245.59 C240.96,261.10 224.68,270.72 201.50,282.49 C158.78,304.17 112.64,320.57 65.32,330.90 Z" fill="rgb(51,51,51)"/>
</g>
</svg>