<?xml version="1.0" encoding="utf-8"?>
<!-- License: CC0, Zookeeper Online https://zookeeper.ibinx.com/ -->
<svg xmlns="http://www.w3.org/2000/svg" width="741" height="741" viewBox="0 0 741 860">
<path fill="#333" d="m682 626-8 4H371c-288 0-304 0-310-2q-19-4-37-24-13-12-18-30l-2-6-1-172c0-168 0-171 2-180 4-15 9-25 23-38q15-15 31-20l8-2 134-1 3-3q3-3 34-17l172-77 23-11c16-6 16-7 17-10 2-6 11-16 18-20 6-3 7-3 17-3 13 0 19 2 27 10q12 10 11 26c0 14-2 18-10 27-10 9-14 10-29 10l-14-2-4-2-18 8-36 16-102 46-5 2h184l189 2c15 5 23 10 34 21q20 19 24 40c2 9 2 341 0 349q-4 22-24 40a77 77 0 0 1-30 19M80 584l290 1c277 0 283 0 290-2q14-3 20-10 9-9 12-24V236c-1-8-6-18-10-22q-7-6-18-10c-4-2-29-2-294-2-278 0-291 0-296 2q-16 6-23 23l-3 5v322l4 8q8 18 28 22m276-284c-4 2-19 2-134 2-125 0-131 0-135-2q-12-7-13-22 0-10 7-17l2-2c5-4 13-4 115-4h54c97 0 105 0 109 4l2 3q7 7 7 17-1 15-14 21m-28 81-120 1-120-1q-12-6-12-20-1-9 6-17l2-3c4-4 12-4 99-4h27l119 1 4 2q9 6 10 18l-1 10c-2 5-9 12-14 13m76 94c-7 4-17 1-20-6v-17a209 209 0 0 1 160-190c16-3 44-4 49-2 8 4 9 15 3 21-3 3-3 3-17 4a176 176 0 0 0-133 73q-32 42-36 98c-1 14-2 16-6 19m54 0-7 2q-6 1-9-4l-4-4v-10c2-36 19-73 46-100a130 130 0 0 1 110-39c7 5 8 15 2 21-3 3-4 3-15 3q-37 2-62 20l-16 13q-32 32-38 81c-1 12-2 14-7 17m140 38c-19 4-39-5-47-23-9-18-6-38 7-51 22-22 58-16 71 12 13 26-2 56-31 62m-83-39q-2 4-8 3-18 0-10-29c12-42 44-71 84-74q14-1 17 7c5 10-1 20-12 20q-13 1-27 7-29 15-38 53-2 10-6 13"/>
</svg>